<?xml version="1.0"?>
<svg xmlns="http://www.w3.org/2000/svg" id="Layer_1_1_" enable-background="new 0 0 256 256" height="512" viewBox="0 0 256 256" width="512"><g><path d="m219.599 229.091-3.346-5.718.539-.987c.973-1.783.776-3.956-.5-5.536l-3.688-4.566c1.354-.58 2.417-1.746 2.843-3.19l.276-.939c.381-1.295.229-2.658-.426-3.838-.655-1.181-1.732-2.029-3.033-2.391l-8.012-2.227-8.011-25.955c-.049-.159-.118-.312-.204-.453l-14.423-23.601-2.605-29.439c-.468-5.283-1.471-10.538-2.979-15.621l-2.329-7.848c-1.31-4.412-4.51-7.928-8.779-9.646l-7.637-3.073-.009.022c-.095-.039-.183-.091-.286-.115l-16.983-3.939v-9.135c6.753-6.573 11.255-17.903 11.255-27.872 0-8.432-3.362-15.968-8.612-20.911.156-.674.298-1.406.298-2.18 0-8.233-6.698-14.932-14.932-14.932-8.232 0-14.931 6.698-14.931 14.932 0 .833.156 1.531.326 2.155-5.265 4.943-8.639 12.49-8.639 20.937 0 9.969 4.502 21.3 11.255 27.873v9.292l-16.997 3.775c-.109.024-.203.079-.304.119l-.009-.023-7.188 2.893c-4.555 1.834-7.968 5.584-9.364 10.29l-2.315 7.798c-1.428 4.81-2.376 9.781-2.818 14.778l-2.644 29.869-14.424 23.601c-.086.142-.155.294-.204.453l-8.011 25.955-7.596 2.111c-1.412.392-2.581 1.313-3.292 2.594-.711 1.28-.874 2.76-.462 4.159l.081.277c.447 1.519 1.546 2.753 2.952 3.4l-3.724 4.609c-1.202 1.488-1.432 3.497-.645 5.215l-.626 3.079c-1.394 6.864 1.485 13.887 7.165 17.477.331.209.669.407 1.015.596 2.628 1.427 5.602 2.171 8.583 2.171.872 0 1.745-.063 2.61-.192l18.234-2.716c.164-.024.324-.069.477-.134l44.491-18.614 59.447 25.606c.154.066.316.113.482.139l18.034 2.817c.917.144 1.838.215 2.755.215 3.414 0 6.772-.984 9.675-2.866l.882-.572c2.434-1.578 4.464-3.752 5.871-6.287 2.245-4.041 2.83-8.727 1.647-13.193-.046-.175-.116-.343-.206-.498zm-49.734-131.171 2.329 7.848c1.433 4.827 2.385 9.818 2.829 14.836l2.646 29.906c.027.307.125.604.285.866l14.537 23.786 8.259 26.761c.201.651.72 1.155 1.376 1.337l9.065 2.519c.351.098.53.342.606.479s.188.418.085.769l-.275.938c-.108.366-.421.644-.795.706l-2.146.357c-.702.116-1.289.598-1.541 1.262-.253.665-.134 1.414.313 1.968l5.74 7.106c.255.315.294.75.1 1.106l-1.857 3.405c-.229.418-.726.617-1.179.475l-3.393-1.071c-.129-.041-.251-.108-.352-.195l-10.154-8.703c-.222-.19-.35-.468-.35-.76v-6.512c0-.343-.088-.68-.256-.979l-28.551-50.903-7.271-25.59c1.762-6.554 2.27-13.485 1.46-20.211l-2.453-20.391 4.5 1.811c3.136 1.259 5.482 3.839 6.443 7.074zm5.045 120.152 2.817 25.734-51.564-22.211 16.678-6.527c7.654.427 26.115 1.68 32.069 3.004zm-50.931.083-41.936 17.544 1.858-22.413 4.994-2.497c5.433-2.717 28.337-4.38 36.704-4.791.302-.016.597-.099.862-.244l8.005-4.384c2.009-1.1 3.594-2.873 4.465-4.993l1.103-2.688c.842-2.053 2.735-3.475 4.941-3.711 1.096-.115 2.21.069 3.212.54l10.712 5.041c.355.167.75.225 1.14.17l11.345-1.65c1.181-.17 2.377.008 3.455.519l9.307 4.415c.175.083.261.278.205.461-.05.165-.199.276-.371.276h-13.98c-.264 0-.524.052-.768.153l-22.211 9.234zm-46.424-23.832c-.264.704-.358 1.442-.309 2.167l-8.822 3.261 23.991-42.773c.075-.133.134-.274.177-.421l5.613-19.314c1.854 8.543 1.404 17.355-1.369 25.761l-2.511 7.619-5.167 18.334-8.107 2.187c-1.604.434-2.911 1.622-3.496 3.179zm24.824-36.812h51.242c.434 2.268 1.01 4.522 1.744 6.748l1.619 4.908h-57.968l1.619-4.909c.734-2.226 1.31-4.479 1.744-6.747zm26.04 42.61c-1.199-2.611-3.31-4.757-5.924-5.97-2.432-1.132-5.213-1.426-7.829-.823l-7.713 1.768-6.696-4.984c-1.959-1.458-4.307-2.171-6.684-2.073l4.189-14.87h60.55l6.02 17.896-4.275.622-10.168-4.785c-1.666-.783-3.512-1.096-5.342-.897-3.667.393-6.815 2.757-8.216 6.169l-1.103 2.688c-.523 1.275-1.477 2.342-2.686 3.004zm-47.119-4.392c.133-.354.431-.624.794-.723l10.191-2.749c1.934-.522 3.972-.138 5.583 1.063l7.438 5.535c.471.35 1.071.477 1.641.345l8.612-1.974c1.759-.4 3.62-.205 5.252.553 1.835.852 3.295 2.389 4.076 4.25-3.217.166-15.491.864-25.508 2.294l-7.538-6.806c-.389-.35-.903-.532-1.419-.514l-7.976.313c-.57.003-.888-.332-.998-.486-.111-.155-.347-.57-.148-1.101zm95.252-4.746c-1.794-.85-3.783-1.149-5.744-.863l-2.452.357-6.706-19.937-2.485-7.534c-2.799-8.49-3.231-17.39-1.314-26.01l5.555 19.551c.043.15.103.295.18.432l21.287 37.952zm-48.537-181.983c5.793 0 10.535 4.533 10.896 10.237-3.252-2.009-6.961-3.153-10.896-3.153s-7.643 1.143-10.896 3.152c.362-5.703 5.103-10.236 10.896-10.236zm0 11.084c8.945 0 16.484 7.313 18.632 17.187-4.283-6.233-11.05-10.103-18.632-10.103-7.566 0-14.503 4.294-18.807 11.004 1.873-10.326 9.592-18.088 18.807-18.088zm-18.747 28.423c2.09-10.066 9.92-17.339 18.747-17.339 9.103 0 16.807 6.87 18.85 16.741-1.844 11.86-9.914 24.52-18.85 24.52-8.786 0-16.73-12.239-18.747-23.922zm18.747 27.922c2.81 0 5.501-.871 7.99-2.389v13.708c0 4.405-3.584 7.989-7.99 7.989-4.405 0-7.989-3.584-7.989-7.989v-13.708c2.489 1.518 5.179 2.389 7.989 2.389zm-11.99 7.856v3.463c0 6.611 5.378 11.989 11.989 11.989s11.99-5.378 11.99-11.989v-3.612l14.713 3.413 2.689 22.355c.851 7.072.13 14.391-2.085 21.163-2.396 7.327-3.162 14.935-2.312 22.443h-50.021c.85-7.508.084-15.116-2.312-22.444-2.215-6.771-2.936-14.09-2.085-21.162l2.688-22.342zm-73.205 135.078 5.74-7.106c.447-.554.566-1.303.313-1.968-.252-.664-.839-1.146-1.541-1.262l-1.882-.313c-.535-.089-.98-.483-1.133-.999l-.08-.277c-.109-.368-.066-.757.12-1.093.188-.336.494-.578.865-.682l8.649-2.403c.656-.183 1.175-.686 1.376-1.337l8.259-26.761 14.537-23.786c.16-.263.258-.56.285-.866l2.685-30.336c.419-4.732 1.316-9.44 2.668-13.993l2.315-7.798c1.048-3.53 3.607-6.343 7.024-7.718l4.052-1.631-2.453 20.391c-.822 6.824-.281 13.857 1.544 20.495l-7.352 25.301-28.55 50.909c-.168.299-.256.636-.256.979v6.512c0 .292-.128.569-.35.76l-10.153 8.703c-.102.087-.224.154-.351.194l-3.394 1.072c-.458.143-.951-.057-1.18-.476l-1.857-3.404c-.194-.357-.155-.791.1-1.107zm32.388 19.196-17.987 2.679c-2.971.447-6.056-.104-8.694-1.537-.269-.146-.532-.301-.788-.462-3.954-2.499-6.094-7.245-5.563-12.086.91.792 2.077 1.243 3.288 1.243.499 0 1.004-.075 1.499-.231l3.396-1.073c.646-.205 1.232-.531 1.746-.971l10.154-8.703c1.109-.952 1.746-2.336 1.746-3.797v-5.989l1.402-2.499 13.647-5.045c.979.835 2.243 1.29 3.549 1.224l7.162-.28 4.566 4.124c-3.084.59-5.656 1.272-7.225 2.057l-21 10.5 1.789 3.578 11.818-5.909-1.828 22.059zm139.454 2.282c-1.092 1.965-2.665 3.649-4.552 4.872l-.882.573c-2.854 1.851-6.275 2.577-9.636 2.056l-17.647-2.757-2.813-25.698c5.04 2.909 12.764 8.73 15.88 11.185l2.475-3.143c-.587-.463-14.452-11.354-20.078-13.317-3.69-1.287-16.804-2.38-25.902-3.007l18.892-7.854h13.579c1.906 0 3.556-1.204 4.155-3.004l3.862 6.885v5.989c0 1.461.637 2.845 1.746 3.797l10.155 8.703c.513.439 1.1.766 1.747.972l3.396 1.072c.495.156 1 .231 1.498.231 1.212 0 2.381-.452 3.291-1.245l2.176 3.718c.829 3.384.355 6.915-1.342 9.972z" data-original="#000000" class="active-path" style="fill:#FFFFFF" data-old_color="#000000"/></g> </svg>
